<?xml version="1.0" encoding="utf-8"?>
<!-- Generator: Adobe Illustrator 21.0.2, SVG Export Plug-In . SVG Version: 6.00 Build 0)  -->
<svg version="1.1" id="Layer_1" xmlns="http://www.w3.org/2000/svg" xmlns:xlink="http://www.w3.org/1999/xlink" x="0px" y="0px"
	 viewBox="0 0 245.1 101.2" style="enable-background:new 0 0 245.1 101.2;" xml:space="preserve">
<style type="text/css">
	.st0{fill:none;stroke:#01A0C6;stroke-width:9.426;stroke-linecap:round;stroke-miterlimit:10;}
	.st1{fill:none;stroke:#4D4D4D;stroke-width:9.426;stroke-linecap:round;stroke-miterlimit:10;}
	.st2{fill:#01A0C6;}
</style>
<g>
	<path class="st0" d="M72.5,30.9L41.4,7c-1.6-1.3-3.9-1.3-5.6,0L6.5,29.5c-1.1,0.9-1.8,2.2-1.8,3.6v42.4c0,2.5,2,4.6,4.6,4.6h48.9"
		/>
	<path class="st1" d="M17.2,39.7l18.6-14.3c1.6-1.3,3.9-1.3,5.6,0l29.3,22.5c1.1,0.9,1.8,2.2,1.8,3.6v38.9c0,2.5-2,4.6-4.6,4.6H4.7"
		/>
</g>
<g>
	<path class="st2" d="M129.4,81.5c0,13.1-6.5,19.7-19.4,19.7c-12.9,0-19.4-6.6-19.4-19.7V19.6C90.6,6.5,97.1,0,110,0
		c12.9,0,19.4,6.5,19.4,19.6v6.4c0,3.1-2.5,5.6-5.6,5.6h-0.2c-3.1,0-5.6-2.5-5.6-5.6v-6.4c0-5.5-2.6-8.3-7.9-8.4H110
		c-5.2,0-7.9,2.8-7.9,8.4v61.8c0,5.6,2.6,8.4,7.9,8.4c5.3,0,7.9-2.8,7.9-8.4V75c0-3.1,2.5-5.6,5.6-5.6h0.2c3.1,0,5.6,2.5,5.6,5.6
		V81.5z"/>
	<path class="st2" d="M146.5,1.6h23.4c3.1,0,5.6,2.5,5.6,5.6v0c0,3.1-2.5,5.6-5.6,5.6h-17.6v32h14.3c3.1,0,5.6,2.5,5.6,5.6v0.1
		c0,3.1-2.5,5.6-5.6,5.6h-14.3v38.7c0,2.6-2.1,4.6-4.6,4.6h-2.2c-2.6,0-4.6-2.1-4.6-4.6V7.2C140.8,4.1,143.4,1.6,146.5,1.6z"/>
	<path class="st2" d="M215.2,75.7l17.1-69.8c0.6-2.5,2.9-4.3,5.5-4.3h1.7c3.1,0,5.6,2.5,5.6,5.6v87.7c0,2.6-2.1,4.6-4.6,4.6h-1.6
		c-2.6,0-4.6-2.1-4.6-4.6V30.2l-14.4,65.7c-0.5,2.1-2.3,3.6-4.5,3.6l0,0c-2.2,0-4-1.5-4.5-3.6L196,30.5v64.4c0,2.6-2.1,4.6-4.6,4.6
		h-1.8c-2.6,0-4.6-2.1-4.6-4.6V7.2c0-3.1,2.5-5.6,5.6-5.6h1.8c2.6,0,4.9,1.8,5.5,4.3L215.2,75.7z"/>
</g>
</svg>
